<svg width="40" height="41" viewBox="0 0 40 41" fill="none" xmlns="http://www.w3.org/2000/svg">
<g filter="url(#filter0_d_2102_2345)">
<mask id="mask0_2102_2345" style="mask-type:luminance" maskUnits="userSpaceOnUse" x="0" y="0" width="40" height="41">
<path d="M0 0.500004H40V40.5H0V0.500004Z" fill="white"/>
</mask>
<g mask="url(#mask0_2102_2345)">
<path d="M22.9258 10.672C29.9173 11.823 35.2413 17.8933 35.2413 25.2108V28.1299" stroke="#309689" stroke-width="2" stroke-miterlimit="10"/>
<path d="M4.75781 28.1299V25.2108C4.75781 17.9589 9.98961 11.9305 16.8886 10.7026" stroke="#309689" stroke-width="2" stroke-miterlimit="10"/>
<path d="M22.9279 21.3662H16.8906V8.17535H22.9279V21.3662Z" stroke="#309689" stroke-width="2" stroke-miterlimit="10"/>
<path d="M38.8288 32.8242H1.17188V32.1709C1.17188 29.9237 2.99352 28.1021 5.24063 28.1021H34.76C37.0072 28.1021 38.8288 29.9237 38.8288 32.1709V32.8242Z" stroke="#309689" stroke-width="2" stroke-miterlimit="10"/>
<path d="M27.2227 19.0225V12.0919" stroke="#309689" stroke-width="2" stroke-miterlimit="10"/>
<path d="M12.5938 19.0225V12.1884" stroke="#309689" stroke-width="2" stroke-miterlimit="10"/>
</g>
</g>
<defs>
<filter id="filter0_d_2102_2345" x="-3.82812" y="7.17529" width="47.657" height="34.6489" filterUnits="userSpaceOnUse" color-interpolation-filters="sRGB">
<feFlood flood-opacity="0" result="BackgroundImageFix"/>
<feColorMatrix in="SourceAlpha" type="matrix" values="0 0 0 0 0 0 0 0 0 0 0 0 0 0 0 0 0 0 127 0" result="hardAlpha"/>
<feOffset dy="4"/>
<feGaussianBlur stdDeviation="2"/>
<feComposite in2="hardAlpha" operator="out"/>
<feColorMatrix type="matrix" values="0 0 0 0 0 0 0 0 0 0 0 0 0 0 0 0 0 0 0.25 0"/>
<feBlend mode="normal" in2="BackgroundImageFix" result="effect1_dropShadow_2102_2345"/>
<feBlend mode="normal" in="SourceGraphic" in2="effect1_dropShadow_2102_2345" result="shape"/>
</filter>
</defs>
</svg>
