<svg width="48" height="49" viewBox="0 0 48 49" fill="none" xmlns="http://www.w3.org/2000/svg">
<g clip-path="url(#clip0_2102_2167)" filter="url(#filter0_d_2102_2167)">
<path d="M23.0927 39.3263H8.47919C6.65689 39.3263 5.17969 37.8491 5.17969 36.0268V15.239C5.17969 13.4167 6.65696 11.9395 8.47919 11.9395H23.0928C24.843 11.9395 26.275 13.3021 26.3855 15.0244" stroke="#309689" stroke-width="2" stroke-miterlimit="10" stroke-linecap="round" stroke-linejoin="round"/>
<path d="M11.6875 11.9399V1.67383H19.8822V11.9399" stroke="#309689" stroke-width="2" stroke-miterlimit="10" stroke-linecap="round" stroke-linejoin="round"/>
<path d="M39.3021 39.3261H20.7897C18.8456 39.3261 17.2695 37.75 17.2695 35.8059V23.278C17.2695 21.3338 18.8455 19.7578 20.7897 19.7578H39.3021C41.2462 19.7578 42.8223 21.3338 42.8223 23.278V35.8059C42.8223 37.75 41.2462 39.3261 39.3021 39.3261Z" stroke="#309689" stroke-width="2" stroke-miterlimit="10" stroke-linecap="round" stroke-linejoin="round"/>
<path d="M26.4023 15.0234H33.6862V19.7581" stroke="#309689" stroke-width="2" stroke-miterlimit="10" stroke-linecap="round" stroke-linejoin="round"/>
<path d="M17.2695 31.874H42.8223" stroke="#309689" stroke-width="2" stroke-miterlimit="10" stroke-linecap="round" stroke-linejoin="round"/>
<path d="M26.4023 15.0234V19.7581" stroke="#309689" stroke-width="2" stroke-miterlimit="10" stroke-linecap="round" stroke-linejoin="round"/>
</g>
<defs>
<filter id="filter0_d_2102_2167" x="0" y="0.5" width="48" height="48" filterUnits="userSpaceOnUse" color-interpolation-filters="sRGB">
<feFlood flood-opacity="0" result="BackgroundImageFix"/>
<feColorMatrix in="SourceAlpha" type="matrix" values="0 0 0 0 0 0 0 0 0 0 0 0 0 0 0 0 0 0 127 0" result="hardAlpha"/>
<feOffset dy="4"/>
<feGaussianBlur stdDeviation="2"/>
<feComposite in2="hardAlpha" operator="out"/>
<feColorMatrix type="matrix" values="0 0 0 0 0 0 0 0 0 0 0 0 0 0 0 0 0 0 0.25 0"/>
<feBlend mode="normal" in2="BackgroundImageFix" result="effect1_dropShadow_2102_2167"/>
<feBlend mode="normal" in="SourceGraphic" in2="effect1_dropShadow_2102_2167" result="shape"/>
</filter>
<clipPath id="clip0_2102_2167">
<rect width="40" height="40" fill="white" transform="translate(4 0.5)"/>
</clipPath>
</defs>
</svg>
